<svg width="100" height="100" viewBox="0 0 100 100" fill="none" xmlns="http://www.w3.org/2000/svg">
<path d="M75 83.3332H25V70.8332H16.6667V83.3332C16.6667 87.9166 20.4167 91.6666 25 91.6666H75C79.5834 91.6666 83.3334 87.9166 83.3334 83.3332V70.8332H75V83.3332Z" fill="white"/>
<path d="M25 16.6666H54.1667V37.4999H75V45.8333H83.3334V33.3333L58.3334 8.33325H25C20.4167 8.33325 16.6667 12.0833 16.6667 16.6666V45.8333H25V16.6666Z" fill="white"/>
<path d="M62.5 54.1666H37.5V62.4999H62.5V54.1666Z" fill="white"/>
<path d="M95.8334 54.1666H70.8334V62.4999H95.8334V54.1666Z" fill="white"/>
<path d="M29.1667 54.1666H4.16669V62.4999H29.1667V54.1666Z" fill="white"/>
</svg>
